<?xml version="1.0" standalone="no"?>
<!DOCTYPE svg PUBLIC "-//W3C//DTD SVG 20010904//EN"
 "http://www.w3.org/TR/2001/REC-SVG-20010904/DTD/svg10.dtd">
<svg version="1.0" xmlns="http://www.w3.org/2000/svg"
 width="700.000000pt" height="700.000000pt" viewBox="0 0 700.000000 700.000000"
 preserveAspectRatio="xMidYMid meet">
<metadata>
Created by potrace 1.11, written by Peter Selinger 2001-2013
</metadata>
<g transform="translate(0.000000,700.000000) scale(0.100000,-0.100000)"
fill="#000000" stroke="none">
<path d="M3309 6306 c-2 -2 -44 -7 -94 -10 -49 -4 -99 -9 -110 -11 -11 -2 -38
-7 -60 -9 -167 -22 -439 -98 -630 -176 -144 -59 -200 -70 -335 -66 -141 4
-144 5 -305 69 -71 28 -134 52 -140 53 -5 1 -41 11 -80 22 -169 50 -420 71
-593 49 -314 -39 -612 -213 -775 -452 -133 -194 -188 -393 -182 -650 5 -197
48 -370 142 -565 118 -246 277 -436 533 -637 2 -3 3 -41 1 -86 -12 -252 -5
-625 14 -727 1 -8 8 -49 15 -90 30 -188 114 -469 192 -640 48 -105 128 -261
149 -291 10 -15 19 -30 19 -34 0 -14 153 -231 228 -324 119 -146 294 -320 444
-439 415 -328 950 -541 1480 -589 155 -15 502 -8 618 11 14 3 59 10 100 16
457 72 926 283 1305 589 107 87 262 236 335 321 11 14 31 36 44 50 53 58 179
233 244 340 166 271 302 608 358 885 8 41 24 131 29 170 4 22 8 51 10 65 17
111 21 288 14 603 -3 119 -1 140 13 148 40 22 201 164 272 239 194 207 335
457 392 695 40 169 52 372 29 500 -23 123 -24 129 -43 185 -119 341 -402 593
-764 679 -126 30 -152 33 -293 36 -231 5 -401 -30 -658 -134 -71 -28 -158 -59
-195 -67 -65 -15 -222 -21 -272 -10 -14 3 -38 8 -53 12 -16 3 -75 25 -131 49
-205 86 -427 151 -611 180 -22 3 -47 8 -55 10 -8 2 -35 7 -60 10 -25 3 -61 8
-80 10 -42 6 -456 16 -461 11z m431 -390 c14 -3 48 -8 75 -11 28 -3 57 -7 65
-10 8 -2 33 -6 55 -10 22 -3 101 -22 175 -42 575 -154 1078 -522 1406 -1026
100 -154 201 -362 256 -527 37 -111 56 -172 62 -200 2 -14 13 -68 24 -120 32
-153 45 -290 46 -465 0 -107 -11 -302 -18 -314 -2 -3 -7 -30 -10 -59 -3 -30
-11 -73 -16 -95 -5 -23 -11 -54 -13 -68 -22 -123 -103 -351 -182 -515 -301
-627 -856 -1097 -1522 -1289 -100 -29 -97 -28 -244 -55 -154 -28 -234 -34
-419 -34 -231 0 -383 18 -591 70 -338 85 -672 251 -939 467 -71 58 -280 262
-326 318 -88 108 -186 249 -261 374 -17 28 -86 169 -116 235 -72 161 -148 426
-173 610 -16 114 -19 172 -19 365 1 157 6 251 18 330 20 130 22 138 35 190 6
22 13 51 16 65 33 170 171 492 299 695 192 303 521 626 802 786 207 117 303
161 486 222 122 41 271 79 367 93 20 3 44 7 52 9 8 2 51 7 95 11 44 3 82 8 84
10 5 5 403 -4 431 -10z"/>
<path d="M2640 4543 c-94 -12 -214 -61 -311 -126 -166 -113 -301 -308 -365
-527 -31 -105 -38 -158 -37 -286 1 -310 164 -559 420 -640 26 -8 90 -17 141
-19 184 -6 361 71 513 224 125 127 213 284 259 464 86 339 -20 678 -261 830
-94 60 -248 94 -359 80z"/>
<path d="M4203 4538 c-275 -41 -473 -291 -490 -619 -6 -119 5 -198 44 -322 22
-72 107 -263 122 -277 3 -3 13 -18 21 -34 8 -17 49 -64 90 -107 225 -230 516
-298 756 -176 91 46 196 152 244 246 67 133 99 324 78 466 -12 84 -18 106 -49
201 -58 177 -143 319 -254 421 -170 159 -369 230 -562 201z"/>
<path d="M3400 2928 c-134 -15 -215 -34 -333 -79 -153 -59 -164 -95 -59 -199
79 -79 193 -183 246 -225 21 -16 51 -41 67 -55 l30 -25 -27 -40 c-54 -82 -118
-114 -229 -114 -132 -1 -218 63 -265 200 -29 84 -57 111 -119 112 -79 2 -120
-72 -95 -171 48 -187 202 -332 382 -359 130 -20 193 -9 393 65 71 27 136 21
226 -19 85 -38 178 -57 266 -53 193 9 337 102 417 269 68 140 63 223 -16 260
-70 33 -141 -10 -160 -100 -16 -73 -70 -146 -137 -182 -50 -28 -208 -25 -263
4 -43 23 -89 70 -107 110 -11 24 3 45 45 69 31 18 134 109 245 219 102 100
112 113 107 139 -3 16 -7 33 -10 38 -16 25 -238 112 -316 123 -117 17 -214 22
-288 13z"/>
</g>
</svg>
